# xmcd
#
# Track frame offsets:
#	150
#	13207
#	26778
#	53097
#	69337
#	82203
#	90660
#	107626
#	128736
#	140877
#	155162
#	172030
#	184088
#
# Disc length: 2671 seconds
#
# Revision: 0
# Processed by: cddbd v1.5.1PL0 Copyright (c) Steve Scherf et al.
# Submitted via: dBpowerAMP V4.0
#
DISCID=ba0a6d0d
DTITLE=Raoul and The Big Time - Big Time Blues
DYEAR=2000
DGENRE=Blues
TTITLE0=All She Wants to Do is Rock
TTITLE1=All I Gotta Do
TTITLE2=Bad Things
TTITLE3=Tequila and Lime
TTITLE4=Who
TTITLE5=Liquid Boogie
TTITLE6=Who You Gonna Love Tonight
TTITLE7=Back Door Blues
TTITLE8=So Far
TTITLE9=Been Gone Too Long
TTITLE10=$2 Bill
TTITLE11=Too Tired
TTITLE12=Only Thing
EXTD=
EXTT0=
EXTT1=
EXTT2=
EXTT3=
EXTT4=
EXTT5=
EXTT6=
EXTT7=
EXTT8=
EXTT9=
EXTT10=
EXTT11=
EXTT12=
PLAYORDER=
